<svg xmlns="http://www.w3.org/2000/svg" viewBox="0 0 480 310"><defs><linearGradient id="metal"><stop stop-color="#657b82"/><stop offset=".45" stop-color="#e4ebea"/><stop offset="1" stop-color="#819297"/></linearGradient><linearGradient id="wood"><stop stop-color="#a26839"/><stop offset=".5" stop-color="#dcb483"/><stop offset="1" stop-color="#895733"/></linearGradient></defs><g stroke="#354945" stroke-width="3" stroke-linejoin="round"><circle cx="100" cy="137" r="51" fill="url(#metal)"/><circle cx="100" cy="137" r="45" fill="#c2cdcc"/><ellipse cx="100.0" cy="166.57999999999998" rx="8.67" ry="11.22" fill="#a2b3b4" stroke-width="1.5" transform="rotate(0.0 100.0 166.57999999999998)"/><ellipse cx="129.57999999999998" cy="137.0" rx="8.67" ry="11.22" fill="#a2b3b4" stroke-width="1.5" transform="rotate(-90.0 129.57999999999998 137.0)"/><ellipse cx="100.0" cy="107.42" rx="8.67" ry="11.22" fill="#a2b3b4" stroke-width="1.5" transform="rotate(-180.0 100.0 107.42)"/><ellipse cx="70.42" cy="137.0" rx="8.67" ry="11.22" fill="#a2b3b4" stroke-width="1.5" transform="rotate(-270.0 70.42 137.0)"/><ellipse cx="100" cy="137" rx="9.18" ry="11.73" fill="#a2b3b4" stroke-width="1.5"/><circle cx="240" cy="137" r="51" fill="url(#metal)"/><circle cx="240" cy="137" r="45" fill="#c2cdcc"/><ellipse cx="240.0" cy="166.57999999999998" rx="8.67" ry="11.22" fill="#a2b3b4" stroke-width="1.5" transform="rotate(0.0 240.0 166.57999999999998)"/><ellipse cx="269.58" cy="137.0" rx="8.67" ry="11.22" fill="#a2b3b4" stroke-width="1.5" transform="rotate(-90.0 269.58 137.0)"/><ellipse cx="240.0" cy="107.42" rx="8.67" ry="11.22" fill="#a2b3b4" stroke-width="1.5" transform="rotate(-180.0 240.0 107.42)"/><ellipse cx="210.42000000000002" cy="137.0" rx="8.67" ry="11.22" fill="#a2b3b4" stroke-width="1.5" transform="rotate(-270.0 210.42000000000002 137.0)"/><ellipse cx="240" cy="137" rx="9.18" ry="11.73" fill="#a2b3b4" stroke-width="1.5"/><circle cx="380" cy="137" r="51" fill="url(#metal)"/><circle cx="380" cy="137" r="45" fill="#c2cdcc"/><ellipse cx="380.0" cy="166.57999999999998" rx="8.67" ry="11.22" fill="#a2b3b4" stroke-width="1.5" transform="rotate(0.0 380.0 166.57999999999998)"/><ellipse cx="409.58" cy="137.0" rx="8.67" ry="11.22" fill="#a2b3b4" stroke-width="1.5" transform="rotate(-90.0 409.58 137.0)"/><ellipse cx="380.0" cy="107.42" rx="8.67" ry="11.22" fill="#a2b3b4" stroke-width="1.5" transform="rotate(-180.0 380.0 107.42)"/><ellipse cx="350.42" cy="137.0" rx="8.67" ry="11.22" fill="#a2b3b4" stroke-width="1.5" transform="rotate(-270.0 350.42 137.0)"/><ellipse cx="380" cy="137" rx="9.18" ry="11.73" fill="#a2b3b4" stroke-width="1.5"/></g><text x="240" y="296" text-anchor="middle" font-family="sans-serif" font-size="13" fill="#64736a">STRUCTURE STUDY · CELLO-PAN</text></svg>